<svg version="1" xmlns="http://www.w3.org/2000/svg" width="682.667" height="682.667" viewBox="0 0 512.000000 512.000000"><path d="M234.9 57.1c-38.3 4-76.9 20.4-106.4 45.1-16.6 13.9-33.1 32.5-42 47.5-.5 1-2 3.5-3.3 5.6C70.5 176.5 60.4 207 57.3 233c-1.2 9.7-.8 42.6.5 50 .6 3.6 1.4 8.3 1.8 10.5 1.2 7.6 5.2 22 8.9 32 20.6 55.2 64.8 98.9 120.3 118.9 7.8 2.8 24.3 7.2 30.6 8.2 2.1.3 4.8.8 6 1 9.1 1.9 39 2.5 52.1 1.1 86.7-9.1 159.5-76.3 174.9-161.2.3-1.7.8-4.1 1.1-5.5 2.8-13.4 2.6-49-.3-65-3-15.8-2.7-14.6-6.2-26.1-12.1-39.1-35.8-73.5-68-98.3-4.7-3.7-8.9-7-9.5-7.4-10-8-45.6-24.7-58.8-27.7-1.2-.2-4.9-1.1-8.2-2-17.7-4.4-48.4-6.5-67.6-4.4z"/></svg>